<svg id="visual" viewBox="0 0 900 600" width="900" height="600" xmlns="http://www.w3.org/2000/svg" xmlns:xlink="http://www.w3.org/1999/xlink" version="1.1"><rect x="0" y="0" width="900" height="600" fill="rgba(255, 255, 255, 0)"></rect><defs><linearGradient id="grad1_0" x1="33.3%" y1="100%" x2="100%" y2="0%"><stop offset="20%" stop-color="rgba(255, 255, 255, 0)" stop-opacity="1"></stop><stop offset="80%" stop-color="rgba(255, 255, 255, 0)" stop-opacity="1"></stop></linearGradient></defs><defs><linearGradient id="grad2_0" x1="0%" y1="100%" x2="66.7%" y2="0%"><stop offset="20%" stop-color="rgba(255, 255, 255, 0)" stop-opacity="1"></stop><stop offset="80%" stop-color="rgba(255, 255, 255, 0)" stop-opacity="1"></stop></linearGradient></defs><g transform="translate(900, 600)"><path d="M-270.4 0C-248.6 -38.5 -226.8 -77 -207 -119.5C-187.2 -162 -169.4 -208.4 -135.2 -234.2C-101 -260 -50.5 -265.2 0 -270.4L0 0Z" fill="#FBAE3C"></path></g><g transform="translate(0, 0)"><path d="M270.4 0C244.9 36.4 219.4 72.8 200.1 115.5C180.7 158.2 167.5 207.3 135.2 234.2C102.9 261.1 51.4 265.7 0 270.4L0 0Z" fill="#FBAE3C"></path></g></svg>