<svg id="visual" viewBox="0 0 900 600" width="900" height="600" xmlns="http://www.w3.org/2000/svg" xmlns:xlink="http://www.w3.org/1999/xlink" version="1.1"><path d="M0 229L30 221C60 213 120 197 180 200C240 203 300 225 360 235C420 245 480 243 540 230C600 217 660 193 720 190C780 187 840 205 870 214L900 223L900 0L870 0C840 0 780 0 720 0C660 0 600 0 540 0C480 0 420 0 360 0C300 0 240 0 180 0C120 0 60 0 30 0L0 0Z" fill="#575757"></path><path d="M0 391L30 395C60 399 120 407 180 405C240 403 300 391 360 388C420 385 480 391 540 394C600 397 660 397 720 398C780 399 840 401 870 402L900 403L900 221L870 212C840 203 780 185 720 188C660 191 600 215 540 228C480 241 420 243 360 233C300 223 240 201 180 198C120 195 60 211 30 219L0 227Z" fill="#3f3f3f"></path><path d="M0 529L30 526C60 523 120 517 180 509C240 501 300 491 360 489C420 487 480 493 540 501C600 509 660 519 720 519C780 519 840 509 870 504L900 499L900 401L870 400C840 399 780 397 720 396C660 395 600 395 540 392C480 389 420 383 360 386C300 389 240 401 180 403C120 405 60 397 30 393L0 389Z" fill="#2f2f2f"></path><path d="M0 601L30 601C60 601 120 601 180 601C240 601 300 601 360 601C420 601 480 601 540 601C600 601 660 601 720 601C780 601 840 601 870 601L900 601L900 497L870 502C840 507 780 517 720 517C660 517 600 507 540 499C480 491 420 485 360 487C300 489 240 499 180 507C120 515 60 521 30 524L0 527Z" fill="#262626"></path></svg>