<svg id="visual" viewBox="0 0 900 600" width="900" height="600" xmlns="http://www.w3.org/2000/svg" xmlns:xlink="http://www.w3.org/1999/xlink" version="1.1"><path d="M0 67L16.7 67C33.3 67 66.7 67 100 63C133.3 59 166.7 51 200 51C233.3 51 266.7 59 300 63C333.3 67 366.7 67 400 67C433.3 67 466.7 67 500 67C533.3 67 566.7 67 600 66C633.3 65 666.7 63 700 62C733.3 61 766.7 61 800 63C833.3 65 866.7 69 883.3 71L900 73L900 0L883.3 0C866.7 0 833.3 0 800 0C766.7 0 733.3 0 700 0C666.7 0 633.3 0 600 0C566.7 0 533.3 0 500 0C466.7 0 433.3 0 400 0C366.7 0 333.3 0 300 0C266.7 0 233.3 0 200 0C166.7 0 133.3 0 100 0C66.7 0 33.3 0 16.7 0L0 0Z" fill="#333333"></path><path d="M0 103L16.7 104C33.3 105 66.7 107 100 106C133.3 105 166.7 101 200 102C233.3 103 266.7 109 300 114C333.3 119 366.7 123 400 125C433.3 127 466.7 127 500 127C533.3 127 566.7 127 600 124C633.3 121 666.7 115 700 115C733.3 115 766.7 121 800 122C833.3 123 866.7 119 883.3 117L900 115L900 71L883.3 69C866.7 67 833.3 63 800 61C766.7 59 733.3 59 700 60C666.7 61 633.3 63 600 64C566.7 65 533.3 65 500 65C466.7 65 433.3 65 400 65C366.7 65 333.3 65 300 61C266.7 57 233.3 49 200 49C166.7 49 133.3 57 100 61C66.7 65 33.3 65 16.7 65L0 65Z" fill="#42374d"></path><path d="M0 277L16.7 278C33.3 279 66.7 281 100 279C133.3 277 166.7 271 200 265C233.3 259 266.7 253 300 249C333.3 245 366.7 243 400 246C433.3 249 466.7 257 500 268C533.3 279 566.7 293 600 299C633.3 305 666.7 303 700 304C733.3 305 766.7 309 800 310C833.3 311 866.7 309 883.3 308L900 307L900 113L883.3 115C866.7 117 833.3 121 800 120C766.7 119 733.3 113 700 113C666.7 113 633.3 119 600 122C566.7 125 533.3 125 500 125C466.7 125 433.3 125 400 123C366.7 121 333.3 117 300 112C266.7 107 233.3 101 200 100C166.7 99 133.3 103 100 104C66.7 105 33.3 103 16.7 102L0 101Z" fill="#4f3a69"></path><path d="M0 331L16.7 331C33.3 331 66.7 331 100 326C133.3 321 166.7 311 200 305C233.3 299 266.7 297 300 292C333.3 287 366.7 279 400 282C433.3 285 466.7 299 500 311C533.3 323 566.7 333 600 338C633.3 343 666.7 343 700 345C733.3 347 766.7 351 800 351C833.3 351 866.7 347 883.3 345L900 343L900 305L883.3 306C866.7 307 833.3 309 800 308C766.7 307 733.3 303 700 302C666.7 301 633.3 303 600 297C566.7 291 533.3 277 500 266C466.7 255 433.3 247 400 244C366.7 241 333.3 243 300 247C266.7 251 233.3 257 200 263C166.7 269 133.3 275 100 277C66.7 279 33.3 277 16.7 276L0 275Z" fill="#5c3c85"></path><path d="M0 451L16.7 449C33.3 447 66.7 443 100 442C133.3 441 166.7 443 200 447C233.3 451 266.7 457 300 452C333.3 447 366.7 431 400 424C433.3 417 466.7 419 500 430C533.3 441 566.7 461 600 469C633.3 477 666.7 473 700 469C733.3 465 766.7 461 800 462C833.3 463 866.7 469 883.3 472L900 475L900 341L883.3 343C866.7 345 833.3 349 800 349C766.7 349 733.3 345 700 343C666.7 341 633.3 341 600 336C566.7 331 533.3 321 500 309C466.7 297 433.3 283 400 280C366.7 277 333.3 285 300 290C266.7 295 233.3 297 200 303C166.7 309 133.3 319 100 324C66.7 329 33.3 329 16.7 329L0 329Z" fill="#683ea2"></path><path d="M0 535L16.7 531C33.3 527 66.7 519 100 513C133.3 507 166.7 503 200 504C233.3 505 266.7 511 300 509C333.3 507 366.7 497 400 493C433.3 489 466.7 491 500 498C533.3 505 566.7 517 600 524C633.3 531 666.7 533 700 533C733.3 533 766.7 531 800 529C833.3 527 866.7 525 883.3 524L900 523L900 473L883.3 470C866.7 467 833.3 461 800 460C766.7 459 733.3 463 700 467C666.7 471 633.3 475 600 467C566.7 459 533.3 439 500 428C466.7 417 433.3 415 400 422C366.7 429 333.3 445 300 450C266.7 455 233.3 449 200 445C166.7 441 133.3 439 100 440C66.7 441 33.3 445 16.7 447L0 449Z" fill="#743fc1"></path><path d="M0 601L16.7 601C33.3 601 66.7 601 100 601C133.3 601 166.7 601 200 601C233.3 601 266.7 601 300 601C333.3 601 366.7 601 400 601C433.3 601 466.7 601 500 601C533.3 601 566.7 601 600 601C633.3 601 666.7 601 700 601C733.3 601 766.7 601 800 601C833.3 601 866.7 601 883.3 601L900 601L900 521L883.3 522C866.7 523 833.3 525 800 527C766.7 529 733.3 531 700 531C666.7 531 633.3 529 600 522C566.7 515 533.3 503 500 496C466.7 489 433.3 487 400 491C366.7 495 333.3 505 300 507C266.7 509 233.3 503 200 502C166.7 501 133.3 505 100 511C66.7 517 33.3 525 16.7 529L0 533Z" fill="#7f3fe0"></path></svg>