<svg xmlns="http://www.w3.org/2000/svg" version="1.1" xmlns:xlink="http://www.w3.org/1999/xlink" xmlns:svgjs="http://svgjs.com/svgjs" width="1440" height="560" preserveAspectRatio="none" viewBox="0 0 1440 560"><g mask="url(&quot;#SvgjsMask1111&quot;)" fill="none"><rect width="1440" height="560" x="0" y="0" fill="rgba(51, 51, 51, 1)"></rect><path d="M -136.4236791297318,506 C -78.82,453.6 36.38,239 151.5763208702682,244 C 266.78,249 324.38,572.2 439.5763208702682,531 C 554.78,489.8 612.38,85 727.5763208702682,38 C 842.78,-9 900.38,253.2 1015.5763208702682,296 C 1130.78,338.8 1188.38,232 1303.5763208702683,252 C 1418.78,272 1564.29,426.4 1591.5763208702683,396 C 1618.86,365.6 1470.32,159.2 1440,100" stroke="rgba(51, 121, 194, 0.58)" stroke-width="2"></path><path d="M -33.78856000513906,513 C 23.81,428.6 139.01,112.2 254.21143999486094,91 C 369.41,69.8 427.01,380.6 542.2114399948609,407 C 657.41,433.4 715.01,225.2 830.2114399948609,223 C 945.41,220.8 1003.01,390.4 1118.211439994861,396 C 1233.41,401.6 1291.01,265.2 1406.211439994861,251 C 1521.41,236.8 1687.45,343.4 1694.211439994861,325 C 1700.97,306.6 1490.84,192.2 1440,159" stroke="rgba(51, 121, 194, 0.58)" stroke-width="2"></path><path d="M -508.88460012574296,42 C -451.28,131.4 -336.08,458.6 -220.88460012574296,489 C -105.68,519.4 -48.08,210.2 67.11539987425704,194 C 182.32,177.8 239.92,404.4 355.11539987425704,408 C 470.32,411.6 527.92,205 643.115399874257,212 C 758.32,219 815.92,434.2 931.115399874257,443 C 1046.32,451.8 1117.34,275 1219.115399874257,256 C 1320.89,237 1395.82,329.6 1440,348" stroke="rgba(51, 121, 194, 0.58)" stroke-width="2"></path><path d="M -235.18374133079095,160 C -177.58,223 -62.38,489 52.81625866920904,475 C 168.02,461 225.62,110 340.81625866920905,90 C 456.02,70 513.62,364.2 628.816258669209,375 C 744.02,385.8 801.62,128 916.816258669209,144 C 1032.02,160 1089.62,445.8 1204.816258669209,455 C 1320.02,464.2 1445.78,200 1492.816258669209,190 C 1539.85,180 1450.56,362 1440,405" stroke="rgba(51, 121, 194, 0.58)" stroke-width="2"></path></g><defs><mask id="SvgjsMask1111"><rect width="1440" height="560" fill="#ffffff"></rect></mask></defs></svg>